<svg xmlns="http://www.w3.org/2000/svg" width="21.503" height="21.5" viewBox="0 0 21.503 21.5">
  <path id="Union_82" data-name="Union 82" d="M12.034,21H8.966a.318.318,0,0,1-.3-.21l-.586-1.645-.735-.318L6.106,18.3l-1.591.754A.318.318,0,0,1,4.152,19c-1.095-1.085-1.095-1.085-2.18-2.18a.318.318,0,0,1-.06-.363l.754-1.575c-.188-.468-.337-.821-.5-1.2l-.318-.751-1.639-.6a.318.318,0,0,1-.21-.3V8.966a.318.318,0,0,1,.21-.3l1.645-.586.318-.757c.162-.388.318-.741.512-1.222L1.931,4.512a.318.318,0,0,1,.064-.363C3.077,3.067,3.077,3.067,4.171,1.982a.318.318,0,0,1,.363-.06l1.591.754L7.353,2.16,8.1,1.842,8.686.2a.318.318,0,0,1,.28-.2h3.067a.318.318,0,0,1,.3.21l.586,1.645.744.318c.395.162.748.318,1.235.515l1.572-.754a.318.318,0,0,1,.363.06c1.095,1.085,1.095,1.085,2.176,2.167a.318.318,0,0,1,.064.363l-.754,1.591c.2.48.35.834.512,1.222l.318.757,1.645.585a.318.318,0,0,1,.21.3v3.067a.318.318,0,0,1-.21.3l-1.648.573-.318.754c-.162.388-.318.741-.512,1.222l.754,1.575a.318.318,0,0,1-.06.363c-1.085,1.095-1.085,1.095-2.179,2.18a.318.318,0,0,1-.363.06l-1.572-.754-1.244.522-.732.318L12.333,20.8a.318.318,0,0,1-.294.2ZM6.22,17.685c.557.239.955.4,1.371.576l.865.363a.318.318,0,0,1,.178.185l.557,1.556h2.615l.557-1.565a.318.318,0,0,1,.178-.185l.862-.36c.433-.181.818-.341,1.375-.579a.318.318,0,0,1,.261,0l1.5.725c.888-.878.98-.955,1.858-1.858l-.719-1.5a.318.318,0,0,1,0-.261c.235-.547.391-.929.57-1.352l.369-.885a.318.318,0,0,1,.185-.178l1.556-.557V9.192L18.8,8.635a.318.318,0,0,1-.185-.178l-.372-.888c-.175-.423-.318-.8-.566-1.349a.318.318,0,0,1,0-.261l.725-1.5c-.875-.878-.955-.97-1.858-1.849l-1.5.719a.318.318,0,0,1-.261,0l-1.362-.573-.875-.366a.318.318,0,0,1-.178-.185L11.808.636H9.192L8.635,2.2a.318.318,0,0,1-.178.185l-.878.369c-.426.175-.808.334-1.359.57a.318.318,0,0,1-.261,0L4.455,2.6c-.888.878-.983.97-1.858,1.849L3.315,5.96a.318.318,0,0,1,0,.261c-.232.547-.391.929-.566,1.349l-.363.888a.318.318,0,0,1-.185.178L.636,9.192v2.615l1.565.557a.318.318,0,0,1,.185.178l.369.881c.178.426.334.805.57,1.355a.318.318,0,0,1,0,.261l-.725,1.5c.878.888.97.98,1.858,1.858l1.5-.719a.318.318,0,0,1,.261,0Zm7.809-3.353a.318.318,0,0,1-.1-.207,3.43,3.43,0,0,0-1.7-2.676,3.357,3.357,0,0,1-3.462,0,3.42,3.42,0,0,0-1.7,2.673.318.318,0,1,1-.633-.057A4.047,4.047,0,0,1,8.635,10.8a.318.318,0,0,1,.318.022,2.73,2.73,0,0,0,3.074,0,.318.318,0,0,1,.318-.022,4.06,4.06,0,0,1,2.2,3.271.318.318,0,0,1-.29.347h-.011A.318.318,0,0,1,14.03,14.331ZM9.392,10.26A2,2,0,1,1,10.5,10.6,2,2,0,0,1,9.392,10.26Zm.354-2.788a1.356,1.356,0,1,0,.755-.229A1.359,1.359,0,0,0,9.745,7.471Z" transform="translate(0.25 0.25)" stroke="#000" stroke-width="0.5"/>
</svg>